#!OML:ASF H:\Pregnant\Project 1\Capture day 1\Session 1\femalepreg.ASF
:FULLY-SPECIFIED
:DEGREES
1669
root 5.77841 15.6814 26.975 549.304 -81.7257 -534.513
lowerback -20.3058 1.24753 0.520369
upperback -1.14108 1.44898 -0.397421
thorax 10.1753 0.668981 -0.327942
lowerneck -16.0155 16.041 18.3698
upperneck 10.8766 20.7167 -17.3419
head 9.87343 9.1595 -5.52618
rclavicle -4.28629e-015 -6.55989e-015
rhumerus -100.202 39.7854 -120.905
rradius 117.038
rwrist -76.9582
rhand -28.6383 -61.1791
rfingers 7.12502
rthumb -2.00237 -268.851
lclavicle -4.28629e-015 -6.55989e-015
lhumerus -100.954 -42.0479 120.936
lradius 117.976
lwrist 99.0319
lhand -49.6011 43.8837
lfingers 7.12502
lthumb -22.2062 -287.372
rfemur -22.5901 23.4608 10.1317
rtibia 26.0232
rfoot -14.2306 -23.4784
rtoes -13.5767
lfemur -9.9819 -10.8767 -14.7524
ltibia 2.8625e-014
lfoot -1.68918 16.5956
ltoes -13.2792
1670
root 5.7748 15.6823 26.9724 548.745 -81.7352 -533.997
lowerback -20.3233 1.28338 0.602423
upperback -1.08357 1.47888 -0.386338
thorax 10.2514 0.687786 -0.352941
lowerneck -15.8998 16.1469 18.5114
upperneck 10.7165 20.8897 -17.627
head 9.88584 9.22931 -5.60986
rclavicle -1.2598e-014 -1.27222e-014
rhumerus -99.5062 39.9031 -121.03
rradius 117.083
rwrist -78.3276
rhand -29.9559 -63.052
rfingers 7.12502
rthumb -3.2749 -266.993
lclavicle -1.2598e-014 -1.27222e-014
lhumerus -100.441 -42.3148 121.258
lradius 118.053
lwrist 100.203
lhand -51.1443 46.0737
lfingers 7.12502
lthumb -23.687 -285.366
rfemur -22.4236 23.3066 10.2816
rtibia 25.8745
rfoot -14.1968 -23.312
rtoes -13.6103
lfemur -9.89977 -10.8779 -14.6795
ltibia -1.74931e-014
lfoot -1.73566 16.6067
ltoes -13.1923
1671
root 5.77117 15.6831 26.9694 548.357 -81.7419 -533.653
lowerback -20.3458 1.31205 0.651313
upperback -1.02626 1.50713 -0.37901
thorax 10.3294 0.704352 -0.363478
lowerneck -15.7575 16.2515 18.6697
upperneck 10.5382 21.0628 -17.9306
head 9.89297 9.30067 -5.70332
rclavicle -2.38542e-014 5.1684e-015
rhumerus -98.8067 40.0322 -121.142
rradius 117.14
rwrist -79.8321
rhand -31.265 -65.0176
rfingers 7.12502
rthumb -4.53903 -265.051
lclavicle -2.38542e-014 5.1684e-015
lhumerus -99.9689 -42.561 121.61
lradius 118.148
lwrist 101.291
lhand -52.6384 48.6498
lfingers 7.12502
lthumb -25.1194 -282.983
rfemur -22.2718 23.1773 10.4009
rtibia 25.7521
rfoot -14.1671 -23.1777
rtoes -13.6598
lfemur -9.81874 -10.8812 -14.6328
ltibia -1.35174e-014
lfoot -1.77948 16.6157
ltoes -13.1179
1672
root 5.76819 15.6837 26.9661 548.163 -81.7484 -533.504
lowerback -20.3663 1.33315 0.661919
upperback -0.970988 1.53443 -0.374834
thorax 10.4032 0.718691 -0.355925
lowerneck -15.5972 16.3547 18.8291
upperneck 10.3488 21.2365 -18.2408
head 9.89547 9.37354 -5.79985
rclavicle -5.05658e-015 9.93923e-015
rhumerus -98.1171 40.1736 -121.252
rradius 117.211
rwrist -81.3786
rhand -32.5622 -67.1513
rfingers 7.12502
rthumb -5.79155 -262.948
lclavicle -5.05658e-015 9.93923e-015
lhumerus -99.5364 -42.785 121.982
lradius 118.258
lwrist 102.315
lhand -54.0645 51.6024
lfingers 7.12502
lthumb -26.4851 -280.228
rfemur -22.1429 23.0798 10.4839
rtibia 25.6629
rfoot -14.1464 -23.0821
rtoes -13.7156
lfemur -9.7437 -10.8883 -14.6138
ltibia -1.98785e-014
lfoot -1.81639 16.6225
ltoes -13.0577
1673
root 5.76632 15.684 26.9624 548.137 -81.7573 -533.52
lowerback -20.383 1.34645 0.637505
upperback -0.918824 1.55933 -0.369775
thorax 10.4704 0.730105 -0.328181
lowerneck -15.4387 16.4577 18.9725
upperneck 10.1655 21.4123 -18.5423
head 9.89889 9.44756 -5.89026
rclavicle -1.36043e-014 -1.98785e-015
rhumerus -97.4501 40.3289 -121.371
rradius 117.297
rwrist -82.8889
rhand -33.8219 -69.4318
rfingers 7.12502
rthumb -7.00764 -260.704
lclavicle -1.36043e-014 -1.98785e-015
lhumerus -99.1341 -42.9874 122.354
lradius 118.377
lwrist 103.28
lhand -55.3827 54.9548
lfingers 7.12502
lthumb -27.7461 -277.073
rfemur -22.0434 23.0301 10.5302
rtibia 25.6077
rfoot -14.137 -23.0383
rtoes -13.755
lfemur -9.68256 -10.9003 -14.616
ltibia -1.98785e-014
lfoot -1.8337 16.6266
ltoes -13.0646
